# xmcd
#
# Track frame offsets:
#	150
#	17554
#	35381
#	53267
#	68939
#	86584
#	99259
#	112602
#	128415
#	144103
#	160988
#	181970
#	200032
#	219366
#	238441
#	254775
#	271748
#	285786
#	300567
#
# Disc length: 4237 seconds
#
# Revision: 0
# Processed by: cddbd v1.5.1PL2 Copyright (c) Steve Scherf et al.
# Submitted via: audiograbber 1.83.01
#
DISCID=f5108b13
DTITLE=фицй фацй - лецакес епитувиес мо 2
DYEAR=2000
DGENRE=каийа
TTITLE0=аута пахаимеи латиа лоу 
TTITLE1=жусгне еяытас бояиас 
TTITLE2=кахос сысто 
TTITLE3=циати циати 
TTITLE4=аимицла 
TTITLE5=йаи пиес йаи пес 
TTITLE6=еутувыс поу неваса ма лецакысы 
TTITLE7=леки йаи жаялайи 
TTITLE8=еисаи аккоу 
TTITLE9=ма лоу цяажеис (ти олояжа ейеи ены) 
TTITLE10=выяис сйопо 
TTITLE11=ци' ауто с' ацапы 
TTITLE12=лауяо тяиамтажукко 
TTITLE13=г ацапг сйомг 
TTITLE14=та паяалухиа тгс вакилас 
TTITLE15=паяацйа 
TTITLE16=йоуяеки 
TTITLE17=посо с' ацапы 
TTITLE18=йоямифа 
EXTD=
EXTT0=
EXTT1=
EXTT2=
EXTT3=
EXTT4=
EXTT5=
EXTT6=
EXTT7=
EXTT8=
EXTT9=
EXTT10=
EXTT11=
EXTT12=
EXTT13=
EXTT14=
EXTT15=
EXTT16=
EXTT17=
EXTT18=
PLAYORDER=
